# File created by Blade
# Date/Time:  Wed Jan 28 16:58:26 2015
#---------------------------------------------------------
:version 1.10
:name HOM
:units
  mass 1.0
  length 1.000000
  angle deg
:documentation
     Acclaim Skeleton File
:root
   axis xyz
   order TX TY TZ RX RY RZ
   position 0.000000 0.000000 0.000000
   orientation 0 0 0
:bonedata
   begin
      id 1
      name Spine_dum
      direction 0.000000 1.000000 0.000000
      length 9.621153
      axis 0.0 0.0 0.0 xyz
   end
   begin
      id 2
      name LeftUpLeg_dum
      direction 1.000000 0.000000 0.000000
      length 2.700595
      axis 0.0 0.0 0.0 xyz
   end
   begin
      id 3
      name RightUpLeg_dum
      direction -1.000000 0.000000 0.000000
      length 2.700595
      axis 0.0 0.0 0.0 xyz
   end
   begin
      id 4
      name Spine
      direction 0.000000 1.000000 0.000000
      length 0.000000
      axis 0.0 0.0 0.0 xyz
      dof rx ry rz
   end
   begin
      id 5
      name Spine_dum1
      direction 0.000000 1.000000 0.000000
      length 12.771951
      axis 0.0 0.0 0.0 xyz
   end
   begin
      id 6
      name Spine_dum2
      direction 0.000000 1.000000 0.000000
      length 7.400569
      axis 0.0 0.0 0.0 xyz
   end
   begin
      id 7
      name Spine_dum3
      direction 0.000000 1.000000 0.000000
      length 7.400569
      axis 0.0 0.0 0.0 xyz
   end
   begin
      id 8
      name Head
      direction 0.000000 1.000000 0.000000
      length 4.527550
      axis 0.0 0.0 0.0 xyz
      dof rx ry rz
   end
   begin
      id 9
      name LeftShoulder
      direction 1.000000 0.000000 0.000000
      length 8.349299
      axis 0.0 0.0 -90.0 xyz
      dof rx ry rz
   end
   begin
      id 10
      name LeftArm
      direction 1.000000 0.000000 0.000000
      length 11.334839
      axis 0.0 0.0 -90.0 xyz
      dof rx ry rz
   end
   begin
      id 11
      name LeftForeArm
      direction 1.000000 0.000000 0.000000
      length 9.694182
      axis 0.0 0.0 -90.0 xyz
      dof ry rz rx
   end
   begin
      id 12
      name LeftHand
      direction 0.000000 0.000000 0.000000
      length 0.000000
      axis 0.0 0.0 -90.0 xyz
      dof rx ry rz
   end
   begin
      id 13
      name LeftHand_dum1
      direction 0.000000 0.000000 0.000000
      length 0.000000
      axis 0.0 0.0 -90.0 xyz
   end
   begin
      id 14
      name LeftHand_dum2
      direction 1.000000 0.000000 0.000000
      length 3.937000
      axis 0.0 0.0 -90.0 xyz
   end
   begin
      id 15
      name LeftHandThumb1
      direction 0.000000 0.000000 1.000000
      length 3.937000
      axis 0.0 0.0 -90.0 xyz
      dof rx rz ry
   end
   begin
      id 16
      name RightShoulder
      direction -1.000000 0.000000 0.000000
      length 8.349299
      axis 0.0 0.0 90.0 xyz
      dof rx ry rz
   end
   begin
      id 17
      name RightArm
      direction -1.000000 0.000000 0.000000
      length 11.334839
      axis 0.0 0.0 90.0 xyz
      dof rx ry rz
   end
   begin
      id 18
      name RightForeArm
      direction -1.000000 0.000000 0.000000
      length 9.694182
      axis 0.0 0.0 90.0 xyz
      dof ry rz rx
   end
   begin
      id 19
      name RightHand
      direction 0.000000 0.000000 0.000000
      length 0.000000
      axis 0.0 0.0 90.0 xyz
      dof rx ry rz
   end
   begin
      id 20
      name RightHand_dum1
      direction 0.000000 0.000000 0.000000
      length 0.000000
      axis 0.0 0.0 90.0 xyz
   end
   begin
      id 21
      name RightHand_dum2
      direction -1.000000 0.000000 0.000000
      length 3.937000
      axis 0.0 0.0 90.0 xyz
   end
   begin
      id 22
      name RightHandThumb1
      direction 0.000000 0.000000 1.000000
      length 3.937000
      axis 0.0 0.0 90.0 xyz
      dof rx rz ry
   end
   begin
      id 23
      name LeftUpLeg
      direction 0.000000 -1.000000 0.000000
      length 16.757176
      axis 0.0 0.0 0.0 xyz
      dof rx ry rz
   end
   begin
      id 24
      name LeftLeg
      direction 0.000000 -1.000000 0.000000
      length 16.759153
      axis 0.0 0.0 0.0 xyz
      dof rx ry rz
   end
   begin
      id 25
      name LeftFoot
      direction 0.000000 -0.258819 0.965926
      length 5.841289
      axis 15.0 0.0 0.0 xyz
      dof rx ry rz
   end
   begin
      id 26
      name LeftToeBase
      direction 0.000000 0.000000 1.000000
      length 2.952750
      axis 0.0 0.0 0.0 xyz
      dof rx ry rz
   end
   begin
      id 27
      name RightUpLeg
      direction 0.000000 -1.000000 0.000000
      length 16.757176
      axis 0.0 0.0 0.0 xyz
      dof rx ry rz
   end
   begin
      id 28
      name RightLeg
      direction 0.000000 -1.000000 0.000000
      length 16.759153
      axis 0.0 0.0 0.0 xyz
      dof rx ry rz
   end
   begin
      id 29
      name RightFoot
      direction 0.000000 -0.258819 0.965926
      length 5.841289
      axis 15.0 0.0 0.0 xyz
      dof rx ry rz
   end
   begin
      id 30
      name RightToeBase
      direction 0.000000 0.000000 1.000000
      length 2.952750
      axis 0.0 0.0 0.0 xyz
      dof rx ry rz
   end
:hierarchy
   begin
      root Spine_dum LeftUpLeg_dum RightUpLeg_dum
      Spine_dum Spine
      LeftUpLeg_dum LeftUpLeg
      RightUpLeg_dum RightUpLeg
      Spine Spine_dum1 Spine_dum2 Spine_dum3
      Spine_dum1 Head
      Spine_dum2 LeftShoulder
      Spine_dum3 RightShoulder
      LeftShoulder LeftArm
      LeftArm LeftForeArm
      LeftForeArm LeftHand
      LeftHand LeftHand_dum1 LeftHand_dum2
      LeftHand_dum1 LeftHandThumb1
      RightShoulder RightArm
      RightArm RightForeArm
      RightForeArm RightHand
      RightHand RightHand_dum1 RightHand_dum2
      RightHand_dum1 RightHandThumb1
      LeftUpLeg LeftLeg
      LeftLeg LeftFoot
      LeftFoot LeftToeBase
      RightUpLeg RightLeg
      RightLeg RightFoot
      RightFoot RightToeBase
   end

# File created by Blade
# Date/Time:  Wed Jan 28 16:58:32 2015
# Frame Rate: 120.000 fps
#------------------------------------------------------
:FULLY-SPECIFIED
:DEGREES
671
root 12.560830 36.222842 -16.684026 161.995649 -15.751694 -164.454482
Spine 34.761553 -8.041244 9.097422
Head 30.794630 20.272951 21.901739
LeftShoulder -4.304230 -0.638223 19.805394
LeftArm 56.275090 -25.306194 -67.208503
LeftForeArm -16.830262 0.000000 56.409336
LeftHand -0.818095 -0.000000 27.143281
LeftHandThumb1 -26.253704 0.000000 33.147579
RightShoulder -17.216526 -8.427974 -3.564469
RightArm 19.761078 -32.357551 69.055393
RightForeArm -5.154782 -0.000000 30.354691
RightHand -12.394003 -0.000000 8.538357
RightHandThumb1 -24.326973 -0.000000 -32.862282
LeftUpLeg 13.050313 33.715164 17.923433
LeftLeg 9.313687 -0.000000 -0.000000
LeftFoot -14.602112 7.824413 -3.517000
LeftToeBase 11.496484 -0.000000 -0.000000
RightUpLeg -77.963921 -7.456935 10.991879
RightLeg 127.284592 -0.000000 -0.000000
RightFoot 5.196335 -10.304674 8.306288
RightToeBase 0.551986 -0.000000 -0.000000
672
root 12.568674 36.238867 -16.678702 162.062777 -15.245664 -164.229167
Spine 34.805824 -7.875503 9.470197
Head 30.744294 20.383091 21.800201
LeftShoulder -4.386066 -0.553522 19.746630
LeftArm 56.074344 -25.527862 -67.070168
LeftForeArm -17.101923 0.000000 56.546504
LeftHand -0.760271 -0.000000 27.139700
LeftHandThumb1 -26.253704 0.000000 33.147579
RightShoulder -17.327053 -8.457818 -3.738405
RightArm 19.780437 -32.028000 68.908783
RightForeArm -4.934736 -0.000000 30.368439
RightHand -12.362199 -0.000000 8.193104
RightHandThumb1 -24.326973 -0.000000 -32.862282
LeftUpLeg 13.089427 33.717061 18.142702
LeftLeg 9.131252 -0.000000 -0.000000
LeftFoot -14.504983 8.287908 -3.458527
LeftToeBase 11.226105 -0.000000 -0.000000
RightUpLeg -78.379526 -7.661572 11.130516
RightLeg 127.453987 -0.000000 -0.000000
RightFoot 4.786466 -10.399891 8.258966
RightToeBase 0.613543 -0.000000 -0.000000
673
root 12.579076 36.254143 -16.670815 162.172848 -14.692069 -164.014724
Spine 34.789054 -7.604077 9.858992
Head 30.738847 20.416803 21.719510
LeftShoulder -4.389269 -0.561988 19.709338
LeftArm 55.734448 -25.734754 -66.876453
LeftForeArm -17.383792 0.000000 56.728289
LeftHand -0.840924 -0.000000 27.130164
LeftHandThumb1 -26.253704 0.000000 33.147579
RightShoulder -17.481504 -8.477634 -3.849459
RightArm 19.681522 -31.521477 68.805195
RightForeArm -4.553327 -0.000000 30.439008
RightHand -12.516242 -0.000000 8.400620
RightHandThumb1 -24.326973 -0.000000 -32.862282
LeftUpLeg 13.091855 33.731442 18.335406
LeftLeg 8.945080 -0.000000 -0.000000
LeftFoot -14.440160 8.824250 -3.427390
LeftToeBase 11.091876 -0.000000 -0.000000
RightUpLeg -78.820370 -7.792823 11.250021
RightLeg 127.615186 -0.000000 -0.000000
RightFoot 4.459309 -10.542775 8.008489
RightToeBase 0.515584 -0.000000 -0.000000
674
root 12.584514 36.262710 -16.651968 162.351776 -14.206011 -163.865947
Spine 34.735103 -7.416888 10.099492
Head 30.719915 20.495744 21.737753
LeftShoulder -4.472659 -0.476693 19.683262
LeftArm 55.449607 -25.963628 -66.638714
LeftForeArm -17.683417 -0.000000 56.887997
LeftHand -0.772237 -0.000000 27.044000
LeftHandThumb1 -26.253704 0.000000 33.147579
RightShoulder -17.556069 -8.429257 -3.972062
RightArm 19.556207 -31.113048 68.736081
RightForeArm -4.146414 -0.000000 30.485862
RightHand -12.673041 -0.000000 8.074925
RightHandThumb1 -24.326973 -0.000000 -32.862282
LeftUpLeg 12.994914 33.674821 18.356918
LeftLeg 8.741323 -0.000000 -0.000000
LeftFoot -14.331964 9.444415 -3.291409
LeftToeBase 10.869531 -0.000000 -0.000000
RightUpLeg -79.359748 -7.909673 11.238024
RightLeg 127.794309 -0.000000 -0.000000
RightFoot 3.966637 -10.702697 8.008900
RightToeBase 0.706311 -0.000000 -0.000000
675
root 12.597366 36.275748 -16.640929 162.483788 -13.700201 -163.668531
Spine 34.721545 -7.222005 10.385099
Head 30.693740 20.531045 21.766826
LeftShoulder -4.556545 -0.435288 19.653715
LeftArm 55.130583 -26.189102 -66.383990
LeftForeArm -18.062165 -0.000000 57.059475
LeftHand -0.756601 -0.000000 27.016341
LeftHandThumb1 -26.253704 0.000000 33.147579
RightShoulder -17.670082 -8.431805 -4.042143
RightArm 19.479077 -30.636409 68.643941
RightForeArm -3.795846 -0.000000 30.525460
RightHand -12.729542 0.000000 7.600438
RightHandThumb1 -24.326973 -0.000000 -32.862282
LeftUpLeg 12.944410 33.532332 18.465899
LeftLeg 8.557772 -0.000000 -0.000000
LeftFoot -14.253819 10.012806 -3.217955
LeftToeBase 10.751253 -0.000000 -0.000000
RightUpLeg -79.825863 -8.054469 11.245244
RightLeg 127.968826 -0.000000 -0.000000
RightFoot 3.455718 -10.830517 8.086944
RightToeBase 0.678334 -0.000000 -0.000000
676
root 12.608552 36.287803 -16.628574 162.620982 -13.187025 -163.509871
Spine 34.752630 -6.994421 10.578446
Head 30.611361 20.624592 21.975723
LeftShoulder -4.646518 -0.351306 19.686665
LeftArm 54.791334 -26.436411 -66.053549
LeftForeArm -18.370556 -0.000000 57.296611
LeftHand -0.928709 -0.000000 27.213601
LeftHandThumb1 -26.253704 0.000000 33.147579
RightShoulder -17.772170 -8.362983 -4.072389
RightArm 19.352316 -30.206136 68.545658
RightForeArm -3.435867 -0.000000 30.579681
RightHand -12.893573 -0.000000 7.233228
RightHandThumb1 -24.326973 -0.000000 -32.862282
LeftUpLeg 12.913035 33.317929 18.517305
LeftLeg 8.339299 -0.000000 -0.000000
LeftFoot -14.175503 10.614351 -3.221257
LeftToeBase 10.655014 -0.000000 -0.000000
RightUpLeg -80.309820 -8.216547 11.249028
RightLeg 128.153967 -0.000000 -0.000000
RightFoot 2.931049 -11.091535 8.016205
RightToeBase 0.795662 -0.000000 -0.000000
677
root 12.617022 36.300725 -16.618504 162.745784 -12.627832 -163.372354
Spine 34.801921 -6.760777 10.773873
Head 30.599144 20.788687 22.000398
LeftShoulder -4.763523 -0.311204 19.678074
LeftArm 54.408756 -26.666808 -65.729560
LeftForeArm -18.752122 -0.000000 57.504623
LeftHand -0.952207 0.000000 27.257197
LeftHandThumb1 -26.253704 0.000000 33.147579
RightShoulder -17.894256 -8.346792 -4.129040
RightArm 19.327969 -29.815660 68.418457
RightForeArm -2.979850 -0.000000 30.613055
RightHand -12.995972 -0.000000 6.789248
RightHandThumb1 -24.326973 -0.000000 -32.862282
LeftUpLeg 12.926305 33.136270 18.592044
LeftLeg 8.137909 -0.000000 -0.000000
LeftFoot -14.087828 11.186372 -3.269911
LeftToeBase 10.536124 -0.000000 -0.000000
RightUpLeg -80.768351 -8.346504 11.226506
RightLeg 128.326419 -0.000000 -0.000000
RightFoot 2.402255 -11.465683 8.051169
RightToeBase 0.934252 -0.000000 -0.000000
678
root 12.627908 36.312302 -16.607306 162.873868 -12.091513 -163.182962
Spine 34.832135 -6.613801 11.016838
Head 30.612744 20.923072 22.032508
LeftShoulder -4.901855 -0.156658 19.633402
LeftArm 54.055137 -26.959877 -65.364917
LeftForeArm -19.230971 0.000000 57.753302
LeftHand -1.036126 0.000000 27.369559
LeftHandThumb1 -26.253704 0.000000 33.147579
RightShoulder -17.943777 -8.214837 -4.296047
RightArm 19.101280 -29.434063 68.409771
RightForeArm -2.557699 0.000000 30.702802
RightHand -13.107347 -0.000000 6.392691
RightHandThumb1 -24.326973 -0.000000 -32.862282
LeftUpLeg 12.810219 33.222682 18.800673
LeftLeg 8.233741 -0.000000 -0.000000
LeftFoot -14.093415 11.494605 -3.256106
LeftToeBase 10.398795 -0.000000 -0.000000
RightUpLeg -81.228493 -8.511832 11.230274
RightLeg 128.508465 -0.000000 -0.000000
RightFoot 1.865245 -11.786702 7.905914
RightToeBase 1.108775 -0.000000 -0.000000
679
root 12.639300 36.325006 -16.598519 162.989534 -11.549901 -162.991759
Spine 34.892337 -6.464366 11.260855
Head 30.547557 21.115525 21.985612
LeftShoulder -5.051167 -0.023927 19.602658
LeftArm 53.665004 -27.252590 -65.016824
LeftForeArm -19.688475 -0.000000 58.040220
LeftHand -1.095874 -0.000000 27.430808
LeftHandThumb1 -26.253704 0.000000 33.147579
RightShoulder -18.110025 -8.228185 -4.404551
RightArm 19.178480 -29.076855 68.270081
RightForeArm -2.255166 -0.000000 30.690105
RightHand -13.232324 -0.000000 6.074845
RightHandThumb1 -24.326973 -0.000000 -32.862282
LeftUpLeg 12.733738 33.245054 19.011758
LeftLeg 8.297610 -0.000000 -0.000000
LeftFoot -14.094506 11.848200 -3.255381
LeftToeBase 10.309510 -0.000000 -0.000000
RightUpLeg -81.672680 -8.673347 11.223796
RightLeg 128.687023 -0.000000 -0.000000
RightFoot 1.433724 -12.120736 7.717774
RightToeBase 1.313333 -0.000000 -0.000000
680
root 12.652251 36.337700 -16.586087 163.108578 -11.036961 -162.769130
Spine 34.941719 -6.376956 11.529821
Head 30.496400 21.286248 21.916739
LeftShoulder -5.196611 0.098190 19.562938
LeftArm 53.240978 -27.560664 -64.647933
LeftForeArm -20.178643 -0.000000 58.319084
LeftHand -1.211492 -0.000000 27.615009
LeftHandThumb1 -26.253704 0.000000 33.147579
RightShoulder -18.222750 -8.192232 -4.583947
RightArm 19.138951 -28.695238 68.216568
RightForeArm -1.912675 -0.000000 30.712088
RightHand -13.274440 -0.000000 5.746277
RightHandThumb1 -24.326973 -0.000000 -32.862282
LeftUpLeg 12.596883 33.332152 19.260488
LeftLeg 8.435970 -0.000000 -0.000000
LeftFoot -14.110933 12.097575 -3.244270
LeftToeBase 10.190854 -0.000000 -0.000000
RightUpLeg -82.129589 -8.869515 11.247070
RightLeg 128.851785 -0.000000 -0.000000
RightFoot 1.101489 -12.496579 7.479110
RightToeBase 1.406815 -0.000000 -0.000000
681
root 12.665344 36.350899 -16.578334 163.215676 -10.502059 -162.528834
Spine 35.002332 -6.296900 11.825821
Head 30.468745 21.516040 21.867369
LeftShoulder -5.409980 0.222512 19.523993
LeftArm 52.806414 -27.799332 -64.278287
LeftForeArm -20.612272 -0.000000 58.592324
LeftHand -1.312630 -0.000000 27.661744
LeftHandThumb1 -26.253704 0.000000 33.147579
RightShoulder -18.343595 -8.114927 -4.801053
RightArm 19.063727 -28.362206 68.178548
RightForeArm -1.691281 -0.000000 30.691183
RightHand -13.134640 -0.000000 5.499950
RightHandThumb1 -24.326973 -0.000000 -32.862282
LeftUpLeg 12.488966 33.498244 19.577467
LeftLeg 8.601597 -0.000000 -0.000000
LeftFoot -14.151544 12.290696 -3.209204
LeftToeBase 10.116206 -0.000000 -0.000000
RightUpLeg -82.565848 -9.047271 11.259285
RightLeg 129.003162 -0.000000 -0.000000
RightFoot 0.898190 -12.888104 7.273430
RightToeBase 1.505808 -0.000000 -0.000000
